<?xml version="1.0" encoding="utf-8"?>
<!-- Generator: Adobe Illustrator 25.1.0, SVG Export Plug-In . SVG Version: 6.00 Build 0)  -->
<svg version="1.1" id="Layer_1" xmlns="http://www.w3.org/2000/svg" xmlns:xlink="http://www.w3.org/1999/xlink" x="0px" y="0px"
	 viewBox="0 0 1080 1920" style="enable-background:new 0 0 1080 1920;" xml:space="preserve">
<style type="text/css">
	.st0{fill:#020202;}
	.st1{fill:none;stroke:#000000;stroke-miterlimit:10;}
</style>
<g id="XMLID_1_">
	<g>
		<path class="st0" d="M1021.5,879.5c0,0,0.2,0,0.5,0c-0.1,0.1-0.2,0.2-0.2,0.2s-12.2,12.2-14.3,14.3c0-4.5,0-9.5,0-14.5
			C1015.3,879.5,1021.5,879.5,1021.5,879.5z"/>
		<path class="st0" d="M1007.5,894l-0.3,0.2c-2-1.9-13.1-12.3-15.6-14.7c5.2,0,10.9,0,16,0C1007.5,884.5,1007.5,889.5,1007.5,894z"
			/>
	</g>
	<g>
		<path class="st1" d="M1007.5,894.5c0,0-0.1-0.1-0.3-0.3c-2-1.9-13.1-12.3-15.6-14.7c5.2,0,10.9,0,16,0c7.8,0,14,0,14,0
			s0.2,0,0.5,0c-0.1,0.1-0.2,0.2-0.2,0.2s-12.2,12.2-14.3,14.3c0-4.5,0-9.5,0-14.5c0-17.6,0-36,0-36c-32.3,0-835,0-835,0"/>
	</g>
</g>
</svg>
