<svg id="Layer_1" data-name="Layer 1" xmlns="http://www.w3.org/2000/svg" viewBox="0 0 196.75 225.8"><defs><style>.cls-1,.cls-2{fill:none;stroke-miterlimit:10;}.cls-1{stroke:#020202;}.cls-2{stroke:#000;}</style></defs><path class="cls-1" d="M39.76,8.69" transform="translate(-42.6 -17.68)"/><path class="cls-2" d="M147.18,180.54c25.85-16.92,49.34-44.14,63.51-71.47,8-15.5,13.1-32.45,16.83-49.45C229.45,50.82,231,42,232,33.07c.3-2.59-.57-13.56,1.91-14.65,8.35-3.66,3.71,35.54,2.91,39.72-3.4,17.7-7.71,35.49-15.38,51.88-12.86,27.48-32.55,55.34-56.72,74-14.07,10.85-28.06,21.87-44.38,29.5A121.34,121.34,0,0,1,99,221.16a128,128,0,0,1-15.86,3.2c-4,.49-9.25-.91-12.89.19,4.18,5.28,13.29,6.92,18,12.06,5.64,6.12-1.2,7.37-6.47,5.67-8.38-2.72-16.22-6.81-24.19-10.5-6.79-3.14-16.24-5.51-14.23-14.46,1.77-7.86,6.68-15.25,10-22.48,2.23-4.83,4.6-16.49,10.83-17.72,19.47-3.83-6.08,31.28-6.78,34.43,3.13.19,6.58-1.19,9.75-1.54,4.58-.51,9.18-.35,13.76-.88a134.23,134.23,0,0,0,25.71-5.68,120.68,120.68,0,0,0,40.52-22.91C156.53,174.42,145.54,182,147.18,180.54Z" transform="translate(-42.6 -17.68)"/></svg>