<svg id="Layer_1" data-name="Layer 1" xmlns="http://www.w3.org/2000/svg" viewBox="0 0 217.98 281.29"><defs><style>.cls-1{fill:#222221;}</style></defs><path class="cls-1" d="M124.42,1.75c23.33,0,46.82-.83,70.07,1.64,10.57,1.12,21.23,2.27,31.7,4.11C234,8.86,249.47,8.94,255,15.74c17.26,21.12-66.93,57.07-80.34,64.45-19.22,10.57-38.93,20.42-58.08,31.23-3.18,1.79-24.31,10.9-24.86,14.72-.45,3.2,13.56,4.65,16.79,5.33,21.77,4.55,96.33,9.41,92.57,44.62-2.29,21.54-34.53,37.77-50.35,48.16q-14,9.18-28.29,17.81c-7.47,4.51-20.63,9-24.91,17.06,13.52,5.23,55.81-22.45,61.3-.34,4,16-23,14.58-32.15,16.25-12.33,2.27-25.25,4.35-38,6-11.66,1.5-32.77,5.89-35.06-10.79-1.72-12.61,4.4-30.55,7-43.15,1.36-6.73,6.29-39.32,18.57-26.85,10.21,10.37-3.16,34,.78,46.08,19.31-16.84,42-29.26,63.26-43.38,9.89-6.57,20.39-13.16,29.08-21.28,11.07-10.34,2.62-13.41-9.12-17.47-20.24-7-41.88-9.06-62.61-13.54-9.75-2.11-25.86-4.36-32.46-12.75-8-10.19,1.22-20.3,9.36-26.49,19.92-15.15,44.6-25.47,66.83-36.75,25-12.67,50.09-25.09,74.4-39.06,1.34-.77,14-6.71,14.1-8.86.21-3.15-8.4-2.69-10.53-3-11-1.39-22-3.56-33-4.76-25.08-2.76-51-3.5-76.34-3.75-15.43-.15-30.76-1.42-46.2-1.57-4.61,0-30.92,3.55-27-5,3-6.45,30.5-6.52,36.27-6.86C92,.88,108.38,1.75,124.42,1.75Z" transform="translate(-39.37 -1.39)"/></svg>